<?xml version="1.0" encoding="UTF-8" standalone="no"?>
<!-- Created with Inkscape (http://www.inkscape.org/) -->

<svg
   width="129.10112mm"
   height="112.78533mm"
   viewBox="0 0 129.10112 112.78533"
   version="1.1"
   id="svg1"
   xml:space="preserve"
   xmlns="http://www.w3.org/2000/svg"
   xmlns:svg="http://www.w3.org/2000/svg"><defs
     id="defs1" /><g
     id="layer1"
     transform="translate(-774.59881,-100.2304)"><path
       style="fill:#000000;stroke-width:1.9464"
       d="m 823.77776,212.70272 c -12.76604,-1.98215 -22.69892,-10.12463 -25.9,-21.23152 -0.7886,-2.73624 -0.85627,-5.08449 -0.52852,-18.34472 0.89078,-36.03856 1.40465,-49.24521 2.00264,-51.46777 0.34914,-1.2977 1.61712,-4.14059 2.81773,-6.31753 1.71792,-3.11495 3.02428,-4.65744 6.13286,-7.24133 4.61841,-3.83895 7.87323,-5.49112 13.53258,-6.86925 3.63042,-0.88405 5.64245,-1.0002 17.32519,-1.0002 14.59415,0 16.73015,0.27595 23.19392,2.99658 5.17604,2.17861 11.42368,7.66544 13.80205,12.12134 3.28694,6.15805 3.28237,6.11501 4.28151,40.50375 0.88024,30.29646 0.87823,31.98382 -0.0424,35.41529 -1.48201,5.52416 -3.77793,9.10752 -8.51721,13.29325 -4.29826,3.79626 -8.07092,5.83635 -13.77566,7.44932 -2.51072,0.70987 -5.4362,0.87655 -17.30503,0.98595 -7.85596,0.0724 -15.51481,-0.0595 -17.0197,-0.29316 z m 31.13883,-3.90618 c 10.21483,-1.88285 19.28925,-9.86924 21.42242,-18.85385 0.50796,-2.13944 0.45588,-9.60691 -0.23901,-34.27563 -0.82287,-29.21206 -0.97187,-31.77447 -2.01843,-34.71299 -2.82086,-7.92043 -10.08321,-14.07617 -19.0198,-16.12162 -4.55245,-1.04199 -27.21028,-1.0562 -31.73786,-0.0199 -9.32777,2.13501 -16.36656,8.19882 -19.33759,16.65909 -1.32784,3.78119 -3.07043,64.02939 -1.98546,68.64538 2.05265,8.73297 10.55477,16.39481 20.55707,18.5254 3.70065,0.78828 28.28308,0.90536 32.35866,0.15418 z m -18.23939,-72.2283 c -1.37618,-0.45985 -3.53153,-2.08162 -4.23811,-3.18895 -0.93606,-1.46691 -0.93884,-16.06166 -0.004,-17.68624 2.52639,-4.38742 10.71097,-4.42429 13.27935,-0.0598 1.23974,2.10672 1.22143,15.38523 -0.0245,17.6923 -1.35025,2.50043 -6.11011,4.21284 -9.01348,3.24269 z m 4.48902,-4.30943 c 0.8839,-0.70292 1.00464,-1.62714 1.00464,-7.68959 0,-7.56606 -0.32296,-8.40789 -3.22556,-8.40789 -2.61176,0 -2.81746,0.60369 -2.81746,8.26891 0,5.82023 0.15656,7.24794 0.86328,7.86892 1.11961,0.98383 2.90898,0.96655 4.1751,-0.0403 z m -55.304,38.62753 c -0.49563,-0.43552 -1.2184,-1.25017 -1.60616,-1.81033 -0.38778,-0.56015 -2.71929,-3.85401 -5.18115,-7.31968 -2.46186,-3.46568 -4.4761,-6.62908 -4.4761,-7.02978 0,-0.40069 1.6687,-3.03545 3.70821,-5.85501 2.03953,-2.81955 4.63612,-6.4449 5.77022,-8.05634 2.06368,-2.93228 3.31842,-3.56043 4.69522,-2.35056 0.36257,0.31861 0.65924,0.90689 0.65924,1.30728 0,0.40039 -2.24745,3.8659 -4.99433,7.70113 -5.80945,8.11126 -5.87905,6.42153 0.63909,15.51285 4.4448,6.19944 4.85325,7.09607 3.696,8.11301 -0.90422,0.79459 -1.84209,0.72609 -2.91024,-0.21257 z m 103.69151,0.47215 c -1.47969,-0.52466 -0.49299,-2.68196 4.25758,-9.30881 2.71935,-3.79339 4.9443,-7.04413 4.9443,-7.22385 0,-0.17972 -2.22412,-3.46745 -4.94249,-7.30605 -2.71837,-3.83863 -4.9433,-7.44485 -4.9443,-8.01385 -0.002,-1.00031 0.94528,-1.6206 2.47422,-1.6206 0.72132,0 12.35687,15.90054 12.35687,16.88625 0,0.65282 -10.96028,16.07577 -11.7521,16.53717 -0.6805,0.39656 -1.37532,0.41099 -2.39408,0.0498 z"
       id="path1" /><text
       xml:space="preserve"
       style="font-style:normal;font-variant:normal;font-weight:normal;font-stretch:normal;font-size:60.5626px;font-family:Gabriola;-inkscape-font-specification:'Gabriola, Normal';font-variant-ligatures:normal;font-variant-caps:normal;font-variant-numeric:normal;font-variant-east-asian:normal;text-align:start;writing-mode:lr-tb;direction:ltr;text-anchor:start;fill:#000000;stroke-width:0.65365"
       x="749.33899"
       y="182.14677"
       id="text2"
       transform="scale(1.0714896,0.93328018)"><tspan
         id="tspan2"
         style="font-style:normal;font-variant:normal;font-weight:normal;font-stretch:normal;font-size:60.5626px;font-family:Gabriola;-inkscape-font-specification:'Gabriola, Normal';font-variant-ligatures:normal;font-variant-caps:normal;font-variant-numeric:normal;font-variant-east-asian:normal;stroke-width:0.65365"
         x="749.33899"
         y="182.14677">niri</tspan></text></g></svg>
